<svg width="81" height="84" viewBox="0 0 81 84" fill="none" xmlns="http://www.w3.org/2000/svg">
<path d="M37.9893 84C20.7782 84 2.19342 73.3823 2.19342 50.0793C2.19342 26.7763 20.7782 16.1586 37.9893 16.1586C47.5488 16.1586 56.3729 19.2497 62.9147 24.8929C70.0045 31.0889 73.7714 39.8232 73.7714 50.0793C73.7714 60.3353 70.0045 69.0151 62.9147 75.2042C56.3729 80.8474 47.4864 84 37.9893 84Z" fill="url(#paint0_radial_257_33)"/>
<path d="M67.5349 29.9152C70.9203 35.4424 72.6546 41.8021 72.5366 48.2573C72.5366 58.4929 68.7697 67.1931 61.6799 73.3823C55.1382 79.0255 46.2585 82.178 36.7546 82.178C25.6135 82.178 13.9104 77.7221 7.03564 68.2576C13.6745 78.9777 26.1546 84 37.9894 84C47.4864 84 56.373 80.8474 62.9147 75.2042C70.0046 69.0083 73.7715 60.3353 73.7715 50.0793C73.7715 42.348 71.6279 35.4765 67.5349 29.9152V29.9152Z" fill="#EB8F00"/>
<path opacity="0.8" d="M17.3165 58.957C24.0213 58.957 29.4566 53.9161 29.4566 47.6979C29.4566 41.4796 24.0213 36.4387 17.3165 36.4387C10.6118 36.4387 5.17645 41.4796 5.17645 47.6979C5.17645 53.9161 10.6118 58.957 17.3165 58.957Z" fill="url(#paint1_radial_257_33)"/>
<path opacity="0.8" d="M59.2172 58.957C65.922 58.957 71.3573 53.9161 71.3573 47.6979C71.3573 41.4796 65.922 36.4387 59.2172 36.4387C52.5124 36.4387 47.0771 41.4796 47.0771 47.6979C47.0771 53.9161 52.5124 58.957 59.2172 58.957Z" fill="url(#paint2_radial_257_33)"/>
<path d="M10.5181 12.4874C13.2 12.4874 15.3741 10.9599 15.3741 9.07556C15.3741 7.19124 13.2 5.6637 10.5181 5.6637C7.83617 5.6637 5.66205 7.19124 5.66205 9.07556C5.66205 10.9599 7.83617 12.4874 10.5181 12.4874Z" fill="#FF00A2"/>
<path d="M30.9462 18.8131C32.084 17.6939 31.7985 15.5985 30.3085 14.1328C28.8185 12.6672 26.6882 12.3864 25.5504 13.5056C24.4126 14.6248 24.6981 16.7202 26.1881 18.1859C27.6781 19.6515 29.8084 19.9324 30.9462 18.8131Z" fill="#FD3B3B"/>
<path d="M45.8266 13.3717C48.3716 11.434 49.6933 8.92093 48.7787 7.75864C47.8641 6.59634 45.0595 7.22493 42.5145 9.16263C39.9695 11.1003 38.6477 13.6134 39.5624 14.7757C40.477 15.938 43.2815 15.3094 45.8266 13.3717Z" fill="#00EEFF"/>
<path d="M11.8764 58.4151C12.8386 57.8687 12.6092 55.706 11.3641 53.5846C10.1189 51.4632 8.32946 50.1865 7.36727 50.733C6.40507 51.2794 6.63447 53.4421 7.87965 55.5635C9.12482 57.6849 10.9143 58.9616 11.8764 58.4151Z" fill="#0048FF"/>
<path d="M60.8127 77.9951C62.1537 77.9951 63.2407 76.3148 63.2407 74.2421C63.2407 72.1693 62.1537 70.489 60.8127 70.489C59.4718 70.489 58.3847 72.1693 58.3847 74.2421C58.3847 76.3148 59.4718 77.9951 60.8127 77.9951Z" fill="#F63BBE"/>
<path d="M74.708 38.9156C76.7443 37.5056 78.0376 35.8629 77.5965 35.2466C77.1554 34.6303 75.1471 35.2737 73.1107 36.6837C71.0744 38.0937 69.7811 39.7363 70.2222 40.3526C70.6633 40.969 72.6716 40.3256 74.708 38.9156Z" fill="#00CC00"/>
<path d="M9.4639 81.4316C10.2647 80.9148 9.89161 78.9631 8.6305 77.0726C7.36939 75.182 5.69785 74.0684 4.89701 74.5852C4.09617 75.1021 4.46929 77.0537 5.73041 78.9443C6.99152 80.8349 8.66306 81.9485 9.4639 81.4316Z" fill="#0048FF"/>
<path d="M4.39749 68.0972C6.69052 67.9371 8.49442 67.0455 8.42661 66.1057C8.3588 65.1659 6.44495 64.5338 4.15191 64.6939C1.85887 64.854 0.0549742 65.7456 0.122788 66.6854C0.190602 67.6252 2.10445 68.2573 4.39749 68.0972Z" fill="#7ACDED"/>
<path d="M10.6005 59.1604C13.353 58.9802 15.5492 58.3159 15.506 57.6767C15.4627 57.0374 13.1963 56.6652 10.4439 56.8454C7.6914 57.0256 5.49514 57.6899 5.53839 58.3291C5.58164 58.9684 7.84802 59.3405 10.6005 59.1604Z" fill="#FF82B2"/>
<path d="M76.3521 52.2015C75.7624 50.1954 74.3542 48.5167 72.4672 47.5614C69.2761 45.8555 65.2803 47.0223 63.5529 50.1612C63.5391 50.1817 63.5321 50.2022 63.5183 50.2227C62.0753 52.8976 63.0951 56.2207 65.8075 57.6605C66.8828 58.2542 68.1454 58.4248 69.3455 58.1382C70.5803 57.8652 71.6209 57.0668 72.1898 55.9546C72.8072 54.6717 72.7517 53.1705 72.051 51.9286C71.4822 50.8368 70.3791 50.1135 69.1374 50.0179C68.4229 50.0043 67.8401 50.5638 67.8263 51.2667C67.8193 51.9013 68.2911 52.4472 68.9293 52.5427C69.2831 52.5632 69.6022 52.7747 69.7617 53.0886C70.0045 53.5731 70.0531 54.1395 69.9005 54.6581C69.6646 55.1153 69.2345 55.4428 68.7212 55.5452C68.1592 55.6885 67.5626 55.6134 67.0562 55.3404C66.3625 54.9788 65.8422 54.3647 65.5994 53.6345C65.3913 52.8839 65.4676 52.0855 65.8075 51.3827C66.2931 50.4547 67.1464 49.7586 68.1662 49.472C69.1859 49.1854 70.2682 49.281 71.2185 49.745C72.4603 50.4137 73.383 51.5465 73.7853 52.8839C74.2085 54.2282 74.0559 55.6816 73.3691 56.9099C72.051 59.3664 69.4842 61.0041 65.7382 61.0041C63.5876 61.0041 50.7885 60.6629 50.7885 60.6629L50.9411 63.8019L65.5994 63.5972C69.9699 63.5972 73.5772 61.8912 75.6584 58.0699C76.7544 56.3094 77.0042 54.1599 76.3521 52.2015V52.2015Z" fill="url(#paint3_linear_257_33)"/>
<path d="M42.4292 62.3005C42.8524 62.7441 43.1784 63.2627 43.4004 63.829L51.3435 63.7813C51.3435 62.7577 51.2047 61.7342 51.2047 60.6424C49.1236 60.5741 44.8364 60.5059 43.5045 60.4581C43.3102 61.161 42.9287 61.8024 42.3876 62.3005H42.4292Z" fill="#7F0099"/>
<path d="M66.5707 36.2339L68.9987 36.5751L69.623 34.1868L69.9699 32.822L56.0261 30.9114C62.339 35.6197 66.1544 36.2339 66.5707 36.2339Z" fill="#FF4545"/>
<path d="M77.7395 2.52478L72.1204 5.66369L70.733 6.4143L76.5602 7.23315C76.9764 5.52722 77.7395 2.52478 77.7395 2.52478V2.52478Z" fill="#FF4545"/>
<path d="M65.322 9.41663L59.5641 12.6238L74.6178 14.7391L75.589 10.8496L65.322 9.41663Z" fill="#FF4545"/>
<path d="M48.8808 18.5604H48.8114L72.7447 21.9723L73.6466 18.3557L54.153 15.6262L48.8808 18.5604Z" fill="#FF4545"/>
<path d="M50.8926 26.4077L70.8717 29.2054L71.8429 25.5206L47.7708 22.1088C48.0483 22.8594 48.8808 24.3606 50.8926 26.4077Z" fill="#FF4545"/>
<path d="M54.1531 15.6263L73.6466 18.3558L74.6178 14.7393L59.5641 12.6239L54.1531 15.6263Z" fill="#FF9C9C"/>
<path d="M76.144 8.73425C76.144 8.73425 76.3521 7.77893 76.4908 7.30127L70.6636 6.48242L65.2526 9.48486L75.5196 10.9178L76.144 8.73425Z" fill="#FF9C9C"/>
<path d="M46.7996 19.6523L47.5627 21.8359C47.5905 21.9588 47.639 22.0748 47.7015 22.1771L71.7735 25.589L72.6754 21.9724L48.742 18.6288L46.7996 19.6523Z" fill="#FF9C9C"/>
<path d="M55.7486 30.7068C55.818 30.775 55.9567 30.8433 56.0261 30.9115L69.9699 32.8904L70.8717 29.2738L50.8926 26.4761C52.4118 27.9909 54.0351 29.4035 55.7486 30.7068V30.7068Z" fill="#FF9C9C"/>
<path d="M77.6701 6.55077C79.5092 6.55077 81 5.08433 81 3.27539C81 1.46644 79.5092 0 77.6701 0C75.8311 0 74.3403 1.46644 74.3403 3.27539C74.3403 5.08433 75.8311 6.55077 77.6701 6.55077Z" fill="#C93737"/>
<path d="M43.7056 61.5022C44.7254 60.6356 45.3636 59.4141 45.4885 58.0903C45.6827 56.7597 45.2804 55.4154 44.3785 54.4055C42.7622 52.3174 38.2669 52.8361 38.2669 52.8361C37.0598 52.8838 35.6654 53.4502 35.8389 54.8149C36.0678 55.5997 36.7129 56.2001 37.5177 56.3776C39.2936 56.7938 41.8257 56.3776 41.895 58.1517C41.9783 60.1443 38.8704 59.3254 38.6207 61.4339C38.3709 63.5425 41.895 63.2627 41.895 64.7162C41.895 65.8284 40.7365 66.0195 39.5156 66.272C38.4681 66.4835 36.4563 66.8042 36.2967 67.9847C36.1372 69.1652 36.8239 70.6187 39.6543 70.1956C44.108 69.5132 45.6064 67.1317 45.6064 65.6578C45.6342 64.0611 44.9405 62.5394 43.7056 61.5022Z" fill="#422B0D"/>
<path d="M28.4577 43.4876L28.3537 43.3579L28.0762 43.0099L27.7224 42.6346C27.5836 42.4845 27.4171 42.3207 27.2506 42.157C27.0772 41.9932 26.8969 41.8362 26.7026 41.6929C26.5292 41.5633 26.3488 41.4473 26.1546 41.3449C26.0228 41.2699 25.8771 41.2153 25.7245 41.188C25.6759 41.1812 25.6343 41.1812 25.5857 41.188C25.5857 41.188 25.5857 41.188 25.5302 41.188H25.6551H25.2944C25.2042 41.188 25.2944 41.188 25.2944 41.188H25.3429C25.3152 41.1812 25.2944 41.1812 25.2666 41.188C25.114 41.2153 24.9683 41.2699 24.8365 41.3449C24.6423 41.4473 24.4619 41.5633 24.2885 41.6929C24.1081 41.8294 23.9208 41.9932 23.7404 42.157C23.4005 42.4845 23.1022 42.8393 22.8941 43.0509L22.5611 43.4398L22.4085 43.6104C21.465 44.6408 19.8833 44.8046 18.7387 43.9994C18.0103 43.5012 17.6357 42.6346 17.7744 41.768C17.7744 41.768 17.823 41.5087 17.9479 41.0856C18.1421 40.4306 18.4196 39.8028 18.7665 39.2159C19.3076 38.247 20.0429 37.394 20.9239 36.7116C21.5275 36.2613 22.1934 35.8996 22.908 35.6471C23.1022 35.5721 23.3103 35.5107 23.5115 35.4629C23.7404 35.3947 23.9694 35.3469 24.2052 35.3128L24.6076 35.2582H24.9406H25.3013H25.8146H26.1476C26.3627 35.2582 26.5847 35.3128 26.7997 35.3469C27.2229 35.4219 27.6322 35.5311 28.0346 35.6744C28.7491 35.9269 29.4151 36.2886 30.0186 36.7389C30.9135 37.4077 31.6696 38.247 32.2246 39.2091C32.4258 39.5435 32.6062 39.8983 32.7518 40.26C32.8837 40.5602 32.9808 40.8809 33.064 41.1198C33.1473 41.3586 33.1403 41.4746 33.1681 41.5906V41.7475C33.3554 43.0645 32.4189 44.286 31.08 44.4702C31.0522 44.477 31.0245 44.477 31.0037 44.477C30.0394 44.6203 29.0613 44.245 28.4577 43.4876V43.4876Z" fill="#422B0D"/>
<path d="M54.2224 43.4876L54.1183 43.3579L53.8408 43.0099L53.5287 42.6346C53.3899 42.4845 53.2234 42.3207 53.0569 42.157C52.8835 41.9932 52.7031 41.8362 52.5089 41.6929C52.3355 41.5633 52.1551 41.4473 51.9609 41.3449C51.8291 41.2699 51.6834 41.2153 51.5377 41.188C51.4891 41.1812 51.4475 41.1812 51.399 41.188C51.399 41.188 51.3573 41.188 51.3435 41.188H51.4475H51.0868C50.9897 41.188 51.0868 41.188 51.0868 41.188H51.1353H51.059C50.9134 41.2153 50.7677 41.2699 50.6359 41.3449C50.4416 41.4473 50.2613 41.5633 50.0878 41.6929C49.8936 41.8362 49.7132 41.9932 49.5398 42.157C49.1929 42.4845 48.9016 42.8393 48.6865 43.0509L48.3535 43.4398L48.2009 43.6104C47.2574 44.6408 45.6758 44.8046 44.5311 43.9994C43.8027 43.5012 43.4281 42.6346 43.5669 41.768C43.5669 41.768 43.6154 41.5087 43.7472 41.0856C43.9207 40.4237 44.1773 39.7823 44.5103 39.1818C45.0653 38.2197 45.8214 37.3804 46.7163 36.7116C47.3199 36.2613 47.9928 35.8996 48.7073 35.6471C48.9016 35.5721 49.1027 35.5107 49.3039 35.4629C49.5329 35.3947 49.7618 35.3469 49.9976 35.3128L50.4 35.2582H50.733H51.0937H51.6071H51.9401C52.162 35.2582 52.3771 35.3128 52.5922 35.3469C53.7645 35.5448 54.8676 36.0156 55.8179 36.7116C56.7128 37.3804 57.4621 38.2197 58.024 39.1818C58.2252 39.5162 58.3986 39.871 58.5443 40.2327C58.6691 40.5124 58.7732 40.799 58.8564 41.0925C58.905 41.2494 58.9397 41.4064 58.9605 41.5633V41.7202C59.1547 43.0304 58.2252 44.2518 56.8932 44.4361C56.8655 44.4429 56.8377 44.4429 56.803 44.4497C55.8318 44.5999 54.8467 44.2382 54.2224 43.4876V43.4876Z" fill="#422B0D"/>
<defs>
<radialGradient id="paint0_radial_257_33" cx="0" cy="0" r="1" gradientUnits="userSpaceOnUse" gradientTransform="translate(37.9824 50.0794) scale(35.1429 34.5681)">
<stop offset="0.5" stop-color="#FDE030"/>
<stop offset="0.92" stop-color="#F7C02B"/>
<stop offset="1" stop-color="#F4A223"/>
</radialGradient>
<radialGradient id="paint1_radial_257_33" cx="0" cy="0" r="1" gradientUnits="userSpaceOnUse" gradientTransform="translate(17.3165 50.0992) scale(13.2138 11.6714)">
<stop stop-color="#ED7770"/>
<stop offset="0.9" stop-color="#ED7770" stop-opacity="0"/>
</radialGradient>
<radialGradient id="paint2_radial_257_33" cx="0" cy="0" r="1" gradientUnits="userSpaceOnUse" gradientTransform="translate(81.6382 798.983) scale(13.479 13.2585)">
<stop stop-color="#ED7770"/>
<stop offset="0.9" stop-color="#ED7770" stop-opacity="0"/>
</radialGradient>
<linearGradient id="paint3_linear_257_33" x1="50.8856" y1="55.2896" x2="76.6851" y2="55.2896" gradientUnits="userSpaceOnUse">
<stop stop-color="#004054"/>
<stop offset="0.99" stop-color="#45A4FF"/>
</linearGradient>
</defs>
</svg>
