<svg width="72" height="72" viewBox="0 0 72 72" fill="none" xmlns="http://www.w3.org/2000/svg">
<path d="M36.3321 72C19.1746 72 0.664185 60.7299 0.664185 36C0.664185 11.2701 19.1746 0 36.3321 0C45.864 0 54.658 3.28444 61.1767 9.2737C68.2487 15.8426 72 25.1163 72 36C72 46.8837 68.2487 56.093 61.1767 62.6619C54.658 68.6512 45.8026 72 36.3321 72Z" fill="url(#paint0_radial_257_48)"/>
<path d="M65.7827 14.5996C69.0605 20.1381 70.7701 26.7327 70.7701 34.0679C70.7701 44.9517 67.0188 54.161 59.9467 60.7298C53.4281 66.7191 44.5726 70.0679 35.1022 70.0679C23.9959 70.0679 12.3485 65.3345 5.47321 55.2944C12.0902 66.6676 24.5371 72 36.3321 72C45.8026 72 54.658 68.6511 61.1767 62.6619C68.2487 56.093 72 46.8837 72 36C72 27.7953 69.8661 20.5052 65.7827 14.5996V14.5996Z" fill="#EB8F00"/>
<path d="M36.578 51.6172C43.2319 51.6172 47.5428 56.7177 48.662 59.0683C49.0925 59.9764 49.1171 60.7299 48.7481 61.0841C48.3607 61.3481 47.8564 61.3481 47.469 61.0841C47.2784 60.9875 47.0877 60.878 46.9155 60.7492C40.7352 56.1124 32.427 56.1124 26.2466 60.7492C26.0744 60.878 25.8899 60.9875 25.6931 61.0841C25.3057 61.3546 24.8014 61.3546 24.414 61.0841C24.045 60.7299 24.0696 59.9764 24.5001 59.0683C25.6132 56.7242 29.9241 51.6172 36.578 51.6172Z" fill="#422B0D"/>
<path d="M14.0642 21.104C12.7112 21.3552 12.6436 23.416 14.1195 23.4869C17.3788 23.5384 20.5274 22.2761 22.9258 19.9641C23.8359 19.1398 24.6108 18.1674 25.2073 17.0726C25.564 16.538 25.441 15.8039 24.9367 15.4239C24.4324 15.0439 23.7252 15.1792 23.3624 15.7073L23.3009 15.7717C20.8841 18.5989 17.6309 20.4729 14.0642 21.104V21.104Z" fill="#422B0D"/>
<path d="M50.181 15.7909L50.1195 15.7265C49.7629 15.192 49.0557 15.0632 48.5452 15.4367C48.0348 15.8102 47.9118 16.5508 48.2746 17.0854C48.8773 18.1737 49.6522 19.1462 50.5685 19.9641C52.9668 22.2761 56.1154 23.5319 59.3748 23.4739C60.8507 23.4031 60.783 21.3423 59.4239 21.0911C55.8572 20.4664 52.604 18.5988 50.181 15.7909V15.7909Z" fill="#422B0D"/>
<path d="M9.22446 64.4009C4.02186 64.4009 0 59.1136 0 54.5863C0 51.4049 1.35907 47.7147 3.28391 42.6013C3.52374 41.8478 3.84353 41.0879 4.16331 40.2507C5.0796 37.8549 5.88521 35.2596 7.11513 33.012C7.69935 31.9172 9.02152 31.5308 10.0608 32.1426C10.4052 32.3487 10.6942 32.6449 10.891 33.012C12.0348 35.221 12.822 37.6102 14.0089 40.3988C17.3727 48.2814 18.3136 51.4693 18.3136 54.6507C18.4305 59.1394 14.3471 64.4009 9.22446 64.4009V64.4009Z" fill="url(#paint1_radial_257_48)"/>
<path d="M14.8513 58.3792C13.6768 60.3112 11.0078 59.9248 11.0078 56.7627C11.0078 54.7406 11.4014 44.3592 13.0618 45.8146C15.7553 48.1781 16.524 55.6873 14.8513 58.3792Z" fill="#81D4FA"/>
<path d="M24.6909 30.8738C22.1142 30.8738 19.7712 33.1536 19.7712 36.9403C19.7712 40.7271 22.1142 43.0004 24.6909 43.0004C27.2676 43.0004 29.6106 40.7206 29.6106 36.9403C29.6106 33.16 27.2676 30.8738 24.6909 30.8738Z" fill="#422B0D"/>
<path d="M24.451 33.4047C23.5778 32.9668 22.5262 33.3532 22.1019 34.2677C21.7759 34.9825 21.9235 35.8391 22.4709 36.3929C23.3441 36.8308 24.3957 36.4444 24.82 35.5299C25.1459 34.8151 24.9984 33.9586 24.451 33.4047Z" fill="#896024"/>
<path d="M48.2623 30.8738C45.6856 30.8738 43.3426 33.1536 43.3426 36.9403C43.3426 40.7271 45.6856 43.0004 48.2623 43.0004C50.839 43.0004 53.182 40.7206 53.182 36.9403C53.182 33.16 50.8513 30.8738 48.2623 30.8738Z" fill="#422B0D"/>
<path d="M48.0349 33.4047C47.1616 32.9668 46.1101 33.3532 45.6857 34.2677C45.3598 34.9825 45.5074 35.8391 46.0547 36.3929C46.928 36.8308 47.9796 36.4444 48.4039 35.5299C48.7298 34.8151 48.5822 33.9586 48.0349 33.4047Z" fill="#896024"/>
<defs>
<radialGradient id="paint0_radial_257_48" cx="0" cy="0" r="1" gradientUnits="userSpaceOnUse" gradientTransform="translate(36.3321 36) scale(35.0282 36.6825)">
<stop offset="0.5" stop-color="#FDE030"/>
<stop offset="0.92" stop-color="#F7C02B"/>
<stop offset="1" stop-color="#F4A223"/>
</radialGradient>
<radialGradient id="paint1_radial_257_48" cx="0" cy="0" r="1" gradientUnits="userSpaceOnUse" gradientTransform="translate(9.88247 36.0263) scale(20.5398 33.1252)">
<stop offset="0.46" stop-color="#29B6F6"/>
<stop offset="1" stop-color="#1E88E5"/>
</radialGradient>
</defs>
</svg>
